<svg width="497" height="464" viewBox="0 0 497 464" fill="none" xmlns="http://www.w3.org/2000/svg">
<path fill-rule="evenodd" clip-rule="evenodd" d="M248 248C274.509 248 296 226.509 296 200C296 173.49 274.509 152 248 152C221.491 152 200 173.49 200 200C200 226.509 221.491 248 248 248Z" stroke="black" stroke-width="48" stroke-linecap="round" stroke-linejoin="round"/>
<path fill-rule="evenodd" clip-rule="evenodd" d="M247.998 24C238.715 24.0035 229.55 26.0922 221.182 30.112L55.9984 132.224V332.928C54.6384 390.64 100.273 438.55 157.982 440H338.014C395.723 438.55 441.358 390.64 439.998 332.928V132.224L274.814 30.112C266.446 26.0922 257.281 24.0035 247.998 24Z" stroke="black" stroke-width="48" stroke-linecap="round" stroke-linejoin="round"/>
<path d="M201.318 295.379C192.141 285.817 176.947 285.503 167.385 294.681C157.822 303.859 157.51 319.052 166.687 328.617L201.318 295.379ZM329.318 328.617C338.496 319.052 338.186 303.859 328.621 294.681C319.059 285.503 303.866 285.817 294.688 295.379L329.318 328.617ZM68.6203 152.638C79.8958 145.67 83.3873 130.88 76.4193 119.605C69.451 108.33 54.6615 104.838 43.3863 111.806L68.6203 152.638ZM11.3863 131.582C0.110813 138.551 -3.38071 153.34 3.58729 164.615C10.5556 175.891 25.3451 179.382 36.6203 172.414L11.3863 131.582ZM452.621 111.806C441.344 104.838 426.557 108.33 419.587 119.605C412.618 130.88 416.112 145.67 427.386 152.638L452.621 111.806ZM459.386 172.414C470.662 179.382 485.45 175.891 492.419 164.615C499.389 153.34 495.895 138.551 484.621 131.582L459.386 172.414ZM166.687 328.617C187.942 350.761 217.309 363.283 248.003 363.283V315.283C230.381 315.283 213.52 308.095 201.318 295.379L166.687 328.617ZM248.003 363.283C278.698 363.283 308.064 350.761 329.318 328.617L294.688 295.379C282.487 308.095 265.626 315.283 248.003 315.283V363.283ZM43.3863 111.806L11.3863 131.582L36.6203 172.414L68.6203 152.638L43.3863 111.806ZM427.386 152.638L459.386 172.414L484.621 131.582L452.621 111.806L427.386 152.638Z" fill="black"/>
</svg>
