<svg width="500" height="500" viewBox="0 0 500 500" fill="none" xmlns="http://www.w3.org/2000/svg">
<path d="M121.949 22.2266H378.599C433.563 22.2266 478.079 66.7428 478.079 121.707V378.357C478.079 433.321 433.563 477.837 378.599 477.837H121.949C66.985 477.837 22.4688 433.321 22.4688 378.357V121.707C22.4688 66.7428 66.985 22.2266 121.949 22.2266Z" fill="url(#paint0_radial_2990_116)"/>
<path d="M370.88 46.7578H129.674C83.7952 46.7578 46.5469 84.0061 46.5469 129.885V371.091C46.5469 416.97 83.7952 454.218 129.674 454.218H370.88C416.759 454.218 454.007 416.97 454.007 371.091V129.431C454.007 83.5519 416.759 46.7578 370.88 46.7578ZM447.193 371.999C447.193 413.79 413.579 447.404 371.788 447.404H128.766C87.4292 447.404 53.3606 413.79 53.3606 371.999V128.522C53.3606 86.7316 86.9749 53.1173 128.766 53.1173H372.242C413.579 53.1173 447.648 86.7316 447.648 128.522V371.999H447.193Z" fill="white"/>
<path d="M250.945 63.1172C148.285 63.1172 64.7031 146.699 64.7031 249.359C64.7031 352.019 148.285 435.6 250.945 435.6C354.059 435.6 437.186 352.019 437.186 249.359C437.186 146.699 353.605 63.1172 250.945 63.1172ZM250.945 432.875C149.647 432.875 67.4286 350.656 67.4286 249.359C67.4286 148.062 149.647 65.8427 250.945 65.8427C352.242 65.8427 434.461 148.062 434.461 249.359C434.461 350.656 352.242 432.875 250.945 432.875Z" fill="#69C5F3"/>
<path d="M250.945 101.281C168.726 101.281 102.406 167.601 102.406 249.82C102.406 332.039 168.726 397.905 250.945 397.905C333.164 397.905 399.484 331.585 399.484 249.366C399.484 167.147 332.71 101.281 250.945 101.281ZM250.945 394.725C170.543 394.725 105.586 329.768 105.586 249.366C105.586 168.964 170.543 104.007 250.945 104.007C331.347 104.007 396.305 168.964 396.305 249.366C396.305 329.768 330.893 394.725 250.945 394.725Z" fill="#68C5F4"/>
<g filter="url(#filter0_bd_2990_116)">
<path d="M94.7795 51.5288L339.302 14.3961C391.669 6.44379 440.522 42.4158 448.474 94.7825L485.607 339.305C493.559 391.672 457.587 440.525 405.221 448.477L160.698 485.61C108.332 493.562 59.4781 457.59 51.5258 405.224L14.393 160.701C6.44072 108.335 42.4127 59.4812 94.7795 51.5288Z" fill="white" fill-opacity="0.63" shape-rendering="crispEdges"/>
<path d="M94.8545 52.0232L339.377 14.8904C391.471 6.97958 440.069 42.7639 447.98 94.8576L485.113 339.38C493.024 391.474 457.239 440.072 405.146 447.983L160.623 485.116C108.529 493.027 59.931 457.242 52.0201 405.149L14.8874 160.626C6.97651 108.533 42.7608 59.934 94.8545 52.0232Z" stroke="white" stroke-opacity="0.79" shape-rendering="crispEdges"/>
</g>
<g filter="url(#filter1_d_2990_116)">
<path d="M115.667 118.692L361.004 95.5199C375.735 94.1285 388.714 104.051 390.002 117.687L411.453 344.799C412.741 358.435 401.849 370.612 387.118 372.004L141.781 395.176C127.05 396.567 114.071 386.645 112.783 373.009L91.3316 145.897C90.0436 132.26 100.936 120.084 115.667 118.692Z" fill="#FDF0DE"/>
<path d="M411.267 342.822L406.733 294.821L108.062 323.031L112.596 371.032C113.988 385.763 127.051 396.572 141.782 395.18L387.119 372.008C401.85 370.617 412.658 357.553 411.267 342.822Z" fill="#324D5B"/>
<path d="M105.539 296.359L404.21 268.15L406.729 294.817L108.058 323.026L105.539 296.359Z" fill="#FEF5E8"/>
<path d="M216.328 215.938L237.662 213.923L246.729 309.924L225.396 311.939L216.328 215.938Z" fill="#E49ADF"/>
<path d="M237.664 213.93L258.998 211.915L268.065 307.916L246.731 309.931L237.664 213.93Z" fill="#E5C45A"/>
<path d="M259 211.914L280.334 209.899L289.401 305.9L268.067 307.915L259 211.914Z" fill="#3DB39E"/>
<path d="M169.251 344.154L350.587 327.027C356.475 326.47 361.705 330.798 362.261 336.686C362.817 342.574 358.49 347.804 352.602 348.36L171.266 365.488C165.378 366.044 160.148 361.716 159.592 355.828C159.036 349.94 163.363 344.71 169.251 344.154ZM242.288 148.921C274.688 145.861 303.436 169.647 306.497 202.047C309.557 234.448 285.771 263.196 253.37 266.256C220.97 269.316 192.222 245.53 189.162 213.13C186.101 180.729 209.887 151.981 242.288 148.921Z" fill="#2B414D"/>
<path d="M243.792 164.923C267.355 162.698 288.264 179.997 290.489 203.56C292.715 227.123 275.415 248.032 251.852 250.258C228.289 252.483 207.381 235.183 205.155 211.62C202.929 188.057 220.229 167.149 243.792 164.923Z" fill="#475F6C"/>
<path d="M245.308 180.919C260.039 179.527 273.102 190.336 274.493 205.067C275.885 219.798 265.076 232.861 250.345 234.253C235.614 235.644 222.551 224.835 221.159 210.105C219.768 195.374 230.577 182.31 245.308 180.919Z" fill="#2B414D"/>
<path d="M246.815 196.922C252.703 196.366 257.933 200.693 258.49 206.582C259.046 212.47 254.718 217.7 248.83 218.256C242.942 218.812 237.712 214.485 237.156 208.597C236.6 202.708 240.927 197.478 246.815 196.922Z" fill="#1F2F38"/>
<path d="M241.482 197.426C244.431 197.147 247.04 199.306 247.319 202.256C247.598 205.205 245.439 207.814 242.489 208.093C239.54 208.371 236.931 206.212 236.652 203.263C236.374 200.314 238.532 197.705 241.482 197.426Z" fill="#535F66"/>
<path d="M145.63 179.569C152.996 178.873 159.528 184.277 160.223 191.643C160.919 199.008 155.515 205.54 148.149 206.236C140.784 206.931 134.252 201.527 133.556 194.162C132.861 186.796 138.265 180.264 145.63 179.569Z" fill="#E2574C"/>
<path d="M331.44 124.352L347.44 122.841C353.329 122.285 358.559 126.612 359.115 132.5L360.626 148.5C361.182 154.388 356.855 159.618 350.967 160.174L334.966 161.686C329.078 162.242 323.848 157.914 323.292 152.026L321.781 136.026C321.225 130.138 325.552 124.908 331.44 124.352Z" fill="#3F5E6D"/>
<path d="M134.104 142.993L150.105 141.481C155.993 140.925 161.223 145.253 161.779 151.141C162.335 157.029 158.008 162.259 152.12 162.815L136.119 164.326C130.231 164.882 125.001 160.555 124.445 154.667C123.889 148.779 128.216 143.549 134.104 142.993Z" fill="#D2BB9A"/>
<path d="M222.875 285.273L244.209 283.258L246.727 309.925L225.394 311.94L222.875 285.273Z" fill="#ECB8E9"/>
<path d="M244.211 283.258L265.545 281.243L268.063 307.91L246.73 309.925L244.211 283.258Z" fill="#EDD68C"/>
<path d="M265.547 281.242L286.88 279.227L289.399 305.894L268.066 307.909L265.547 281.242Z" fill="#78CABB"/>
</g>
<defs>
<filter id="filter0_bd_2990_116" x="5.28906" y="5.29688" width="489.422" height="489.414" filterUnits="userSpaceOnUse" color-interpolation-filters="sRGB">
<feFlood flood-opacity="0" result="BackgroundImageFix"/>
<feGaussianBlur in="BackgroundImageFix" stdDeviation="4"/>
<feComposite in2="SourceAlpha" operator="in" result="effect1_backgroundBlur_2990_116"/>
<feColorMatrix in="SourceAlpha" type="matrix" values="0 0 0 0 0 0 0 0 0 0 0 0 0 0 0 0 0 0 127 0" result="hardAlpha"/>
<feOffset dy="4"/>
<feGaussianBlur stdDeviation="2"/>
<feComposite in2="hardAlpha" operator="out"/>
<feColorMatrix type="matrix" values="0 0 0 0 0 0 0 0 0 0 0 0 0 0 0 0 0 0 0.55 0"/>
<feBlend mode="normal" in2="effect1_backgroundBlur_2990_116" result="effect2_dropShadow_2990_116"/>
<feBlend mode="normal" in="SourceGraphic" in2="effect2_dropShadow_2990_116" result="shape"/>
</filter>
<filter id="filter1_d_2990_116" x="83.2266" y="91.3906" width="336.328" height="315.914" filterUnits="userSpaceOnUse" color-interpolation-filters="sRGB">
<feFlood flood-opacity="0" result="BackgroundImageFix"/>
<feColorMatrix in="SourceAlpha" type="matrix" values="0 0 0 0 0 0 0 0 0 0 0 0 0 0 0 0 0 0 127 0" result="hardAlpha"/>
<feOffset dy="4"/>
<feGaussianBlur stdDeviation="4"/>
<feComposite in2="hardAlpha" operator="out"/>
<feColorMatrix type="matrix" values="0 0 0 0 0 0 0 0 0 0 0 0 0 0 0 0 0 0 0.34 0"/>
<feBlend mode="normal" in2="BackgroundImageFix" result="effect1_dropShadow_2990_116"/>
<feBlend mode="normal" in="SourceGraphic" in2="effect1_dropShadow_2990_116" result="shape"/>
</filter>
<radialGradient id="paint0_radial_2990_116" cx="0" cy="0" r="1" gradientUnits="userSpaceOnUse" gradientTransform="translate(22801.6 22813.9) rotate(-90) scale(22798.9 22798.9)">
<stop stop-color="#007BEC"/>
<stop offset="1" stop-color="#009BF2"/>
</radialGradient>
</defs>
</svg>
