<svg width="160" height="160" viewBox="0 0 160 160" fill="none" xmlns="http://www.w3.org/2000/svg">
<path d="M75.9999 60H129.333C126.333 52.3333 121.75 45.75 115.583 40.25C109.417 34.75 102.333 30.8889 94.3332 28.6666L75.9999 60ZM60.6666 73.3333L87.3332 27.3333C86.111 27.1111 84.8888 26.9444 83.6666 26.8333C82.4444 26.7222 81.2221 26.6666 79.9999 26.6666C72.6666 26.6666 65.8332 28.0555 59.4999 30.8333C53.1666 33.6111 47.5555 37.3333 42.6666 42L60.6666 73.3333ZM28.3333 93.3333H64.6666L37.9999 47.3333C34.4444 51.8889 31.6666 56.9166 29.6666 62.4166C27.6666 67.9166 26.6666 73.7778 26.6666 80C26.6666 82.3333 26.8055 84.5833 27.0833 86.75C27.361 88.9166 27.7777 91.1111 28.3333 93.3333ZM65.6666 131.333L83.6666 100H30.6666C33.6666 107.667 38.2499 114.25 44.4166 119.75C50.5832 125.25 57.6666 129.111 65.6666 131.333ZM79.9999 133.333C87.3332 133.333 94.1666 131.944 100.5 129.167C106.833 126.389 112.444 122.667 117.333 118L99.3332 86.6666L72.6666 132.667C73.8888 132.889 75.0832 133.056 76.2499 133.167C77.4166 133.278 78.6666 133.333 79.9999 133.333ZM122 112.667C125.555 108.111 128.333 103.083 130.333 97.5833C132.333 92.0833 133.333 86.2222 133.333 80C133.333 77.6666 133.194 75.4166 132.917 73.25C132.639 71.0833 132.222 68.8889 131.667 66.6666H95.3332L122 112.667ZM79.9999 146.667C70.8888 146.667 62.2777 144.917 54.1666 141.417C46.0555 137.917 38.9721 133.139 32.9166 127.083C26.861 121.028 22.0833 113.944 18.5833 105.833C15.0833 97.7222 13.3333 89.1111 13.3333 80C13.3333 70.7778 15.0833 62.1389 18.5833 54.0833C22.0833 46.0278 26.861 38.9722 32.9166 32.9166C38.9721 26.8611 46.0555 22.0833 54.1666 18.5833C62.2777 15.0833 70.8888 13.3333 79.9999 13.3333C89.2221 13.3333 97.861 15.0833 105.917 18.5833C113.972 22.0833 121.028 26.8611 127.083 32.9166C133.139 38.9722 137.917 46.0278 141.417 54.0833C144.917 62.1389 146.667 70.7778 146.667 80C146.667 89.1111 144.917 97.7222 141.417 105.833C137.917 113.944 133.139 121.028 127.083 127.083C121.028 133.139 113.972 137.917 105.917 141.417C97.861 144.917 89.2221 146.667 79.9999 146.667Z" fill="white"/>
</svg>
